<svg xmlns="http://www.w3.org/2000/svg" xmlns:xlink="http://www.w3.org/1999/xlink" width="171.896" height="161.31" viewBox="0 0 171.896 161.31">
  <defs>
    <linearGradient id="linear-gradient" x1="0.5" x2="0.5" y2="1.863" gradientUnits="objectBoundingBox">
      <stop offset="0" stop-color="#00378e"/>
      <stop offset="1" stop-color="#001c47"/>
    </linearGradient>
    <filter id="time" x="0" y="0" width="171.896" height="161.31" filterUnits="userSpaceOnUse">
      <feOffset dy="3" input="SourceAlpha"/>
      <feGaussianBlur stdDeviation="3" result="blur"/>
      <feFlood flood-opacity="0.161"/>
      <feComposite operator="in" in2="blur"/>
      <feComposite in="SourceGraphic"/>
    </filter>
  </defs>
  <g transform="matrix(1, 0, 0, 1, 0, 0)" filter="url(#time)">
    <g id="time-2" data-name="time" transform="translate(161.43 147.99) rotate(180)" fill="url(#linear-gradient)">
      <path d="M 151.4634399414062 141.4863128662109 L 150.9634399414062 141.4863128662109 L -2.929688491803972e-08 141.4863128662109 L -0.5 141.4863128662109 L -0.5 140.9863128662109 L -0.5 65.71182250976562 L -0.7330800294876099 65.47882843017578 L -0.5 65.27655792236328 L -0.5 65.13044738769531 L -0.3316378891468048 65.13044738769531 L -0.3277200162410736 65.12705230712891 L 75.15399932861328 -0.3776111900806427 L 75.48171997070312 -0.6620112061500549 L 75.80944061279297 -0.3776111900806427 L 151.2911529541016 65.12705230712891 L 151.2950744628906 65.13044738769531 L 151.4634399414062 65.13044738769531 L 151.4634399414062 65.27655792236328 L 151.6965179443359 65.47882843017578 L 151.4634399414062 65.71182250976562 L 151.4634399414062 140.9863128662109 L 151.4634399414062 141.4863128662109 Z M 25.66057968139648 115.3257675170898 L 125.3028564453125 115.3257675170898 L 125.3028564453125 72.00193023681641 L 75.48171997070312 22.1807689666748 L 25.66057968139648 72.00193023681641 L 25.66057968139648 115.3257675170898 Z" stroke="none"/>
      <path d="M 75.48171997070312 -1.52587890625e-05 L 0 65.50466918945312 L 0.12579345703125 65.63044738769531 L 0 65.63044738769531 L 0 140.9862823486328 L 150.9634399414062 140.9862823486328 L 150.9634399414062 65.63044738769531 L 150.8376159667969 65.63044738769531 L 150.9634399414062 65.50466918945312 L 75.48171997070312 -1.52587890625e-05 M 125.8028564453125 115.8257675170898 L 25.16056060791016 115.8257675170898 L 25.16056060791016 71.79480743408203 L 75.48171997070312 21.47362518310547 L 125.8028564453125 71.79480743408203 L 125.8028564453125 115.8257675170898 M 75.48171997070312 -1.324066162109375 L 76.13713836669922 -0.7552642822265625 L 151.4817810058594 64.63044738769531 L 151.9634399414062 64.63044738769531 L 151.9634399414062 65.04843902587891 L 152.4295959472656 65.45297241210938 L 151.9634399414062 65.91898345947266 L 151.9634399414062 140.9862823486328 L 151.9634399414062 141.9862823486328 L 150.9634399414062 141.9862823486328 L 0 141.9862823486328 L -1 141.9862823486328 L -1 140.9862823486328 L -1 65.91893005371094 L -1.466079711914062 65.45291137695312 L -1 65.04843902587891 L -1 64.63044738769531 L -0.518341064453125 64.63044738769531 L 74.82630157470703 -0.7552642822265625 L 75.48171997070312 -1.324066162109375 Z M 124.8028564453125 72.20900726318359 L 75.48171997070312 22.88783264160156 L 26.16056060791016 72.20900726318359 L 26.16056060791016 114.8257675170898 L 124.8028564453125 114.8257675170898 L 124.8028564453125 72.20900726318359 Z" stroke="none" fill="#fff"/>
    </g>
  </g>
</svg>
