<svg xmlns="http://www.w3.org/2000/svg" xmlns:xlink="http://www.w3.org/1999/xlink" width="120.642" height="114.766" viewBox="0 0 120.642 114.766">
  <defs>
    <linearGradient id="linear-gradient" x1="0.5" x2="0.5" y2="1" gradientUnits="objectBoundingBox">
      <stop offset="0" stop-color="#f4f4f4"/>
      <stop offset="1" stop-color="#b7b7b7"/>
    </linearGradient>
    <filter id="time" x="0" y="0" width="120.642" height="114.766" filterUnits="userSpaceOnUse">
      <feOffset dy="3" input="SourceAlpha"/>
      <feGaussianBlur stdDeviation="3" result="blur"/>
      <feFlood flood-opacity="0.161"/>
      <feComposite operator="in" in2="blur"/>
      <feComposite in="SourceGraphic"/>
    </filter>
  </defs>
  <g transform="matrix(1, 0, 0, 1, 0, 0)" filter="url(#time)">
    <g id="time-2" data-name="time" transform="translate(110.64 101.35) rotate(180)" fill="url(#linear-gradient)">
      <path d="M 101.1422882080078 94.85213470458984 L 100.6422882080078 94.85213470458984 L -2.56266275755479e-06 94.85213470458984 L -0.5000025629997253 94.85213470458984 L -0.5000025629997253 94.35213470458984 L -0.5000025629997253 50.32115936279297 L -0.5000025629997253 50.11405563354492 L -0.3535625636577606 49.96760177612305 L 49.96758270263672 -0.3535593152046204 L 50.32114410400391 -0.7071059942245483 L 50.67470550537109 -0.3535593152046204 L 100.995849609375 49.96760177612305 L 101.1422882080078 50.11405563354492 L 101.1422882080078 50.32115936279297 L 101.1422882080078 94.35213470458984 L 101.1422882080078 94.85213470458984 Z" stroke="none"/>
      <path d="M 100.6422882080078 94.35213470458984 L 100.6422882080078 50.32115936279297 L 50.32114410400391 6.85628265273408e-07 L -2.56266275755479e-06 50.32115936279297 L -2.56266275755479e-06 94.35213470458984 L 100.6422882080078 94.35213470458984 M 101.6422882080078 95.35213470458984 L 100.6422882080078 95.35213470458984 L -2.56266275755479e-06 95.35213470458984 L -1.000002503395081 95.35213470458984 L -1.000002503395081 94.35213470458984 L -1.000002503395081 50.32115936279297 L -1.000002503395081 49.90694808959961 L -0.7071092128753662 49.61405563354492 L 49.61403656005859 -0.7071059942245483 L 50.32114410400391 -1.414212703704834 L 51.02825164794922 -0.7071059942245483 L 101.3493957519531 49.61405563354492 L 101.6422882080078 49.90694808959961 L 101.6422882080078 50.32115936279297 L 101.6422882080078 94.35213470458984 L 101.6422882080078 95.35213470458984 Z" stroke="none" fill="#fff"/>
    </g>
  </g>
</svg>
