<svg xmlns="http://www.w3.org/2000/svg" xmlns:xlink="http://www.w3.org/1999/xlink" width="208.974" height="195.938" viewBox="0 0 208.974 195.938">
  <defs>
    <linearGradient id="linear-gradient" x1="0.5" x2="0.5" y2="1" gradientUnits="objectBoundingBox">
      <stop offset="0" stop-color="#fff"/>
      <stop offset="1" stop-color="#b1b1b1"/>
    </linearGradient>
    <linearGradient id="linear-gradient-2" x1="0.5" x2="0.5" y2="1.109" gradientUnits="objectBoundingBox">
      <stop offset="0" stop-color="#001690"/>
      <stop offset="1" stop-color="#000b48"/>
    </linearGradient>
    <filter id="time" x="0" y="0" width="208.974" height="195.938" filterUnits="userSpaceOnUse">
      <feOffset dy="3" input="SourceAlpha"/>
      <feGaussianBlur stdDeviation="3" result="blur"/>
      <feFlood flood-opacity="0.161"/>
      <feComposite operator="in" in2="blur"/>
      <feComposite in="SourceGraphic"/>
    </filter>
  </defs>
  <g id="time-2" data-name="time" transform="translate(-151.509 -176.298)">
    <path id="time-3" data-name="time" d="M202.691,232.468v54.846H77.329V232.468l62.681-62.681Z" transform="translate(115.986 40.582)" fill="url(#linear-gradient)"/>
    <g transform="matrix(1, 0, 0, 1, 151.51, 176.3)" filter="url(#time)">
      <g id="time-4" data-name="time" transform="translate(4.47 -101.59)" fill="url(#linear-gradient-2)">
        <path d="M 194.5420379638672 285.0252075195312 L 194.0420379638672 285.0252075195312 L 5.999995231628418 285.0252075195312 L 5.499995231628418 285.0252075195312 L 5.499995231628418 284.5252075195312 L 5.499995231628418 190.7114105224609 L 5.266923904418945 190.4784088134766 L 5.499995231628418 190.2761535644531 L 5.499995231628418 190.1609344482422 L 5.632771492004395 190.1609344482422 L 5.672280788421631 190.1266479492188 L 99.69330596923828 108.5331954956055 L 100.0210189819336 108.2487869262695 L 100.3487319946289 108.5331954956055 L 194.3697509765625 190.1266479492188 L 194.4092712402344 190.1609344482422 L 194.5420379638672 190.1609344482422 L 194.5420379638672 190.2761535644531 L 194.7750854492188 190.4783782958984 L 194.5420379638672 190.7113800048828 L 194.5420379638672 284.5252075195312 L 194.5420379638672 285.0252075195312 Z M 37.84035110473633 252.6849060058594 L 162.2016906738281 252.6849060058594 L 162.2016906738281 198.5464324951172 L 100.0210189819336 136.3657684326172 L 37.84035110473633 198.5464324951172 L 37.84035110473633 252.6849060058594 Z" stroke="none"/>
        <path d="M 100.0210189819336 108.9107971191406 L 6 190.5042572021484 L 6.156707763671875 190.6609344482422 L 6 190.6609344482422 L 6 284.5252075195312 L 194.0420379638672 284.5252075195312 L 194.0420379638672 190.6609344482422 L 193.8853454589844 190.6609344482422 L 194.0420379638672 190.5042572021484 L 100.0210189819336 108.9107971191406 M 162.7016906738281 253.1849060058594 L 37.34034729003906 253.1849060058594 L 37.34034729003906 198.3393402099609 L 100.0210189819336 135.6586608886719 L 162.7016906738281 198.3393402099609 L 162.7016906738281 253.1849060058594 M 100.0210189819336 107.5867309570312 L 100.6764450073242 108.155517578125 L 194.5959930419922 189.6609344482422 L 195.0420379638672 189.6609344482422 L 195.0420379638672 190.0480346679688 L 195.5081176757812 190.4524993896484 L 195.0420379638672 190.9185180664062 L 195.0420379638672 284.5252075195312 L 195.0420379638672 285.5252075195312 L 194.0420379638672 285.5252075195312 L 6 285.5252075195312 L 5 285.5252075195312 L 5 284.5252075195312 L 5 190.9185638427734 L 4.533859252929688 190.4525756835938 L 5 190.0480346679688 L 5 189.6609344482422 L 5.446044921875 189.6609344482422 L 99.36559295654297 108.155517578125 L 100.0210189819336 107.5867309570312 Z M 161.7016906738281 198.7535247802734 L 100.0210189819336 137.0728454589844 L 38.34034729003906 198.7535247802734 L 38.34034729003906 252.1849060058594 L 161.7016906738281 252.1849060058594 L 161.7016906738281 198.7535247802734 Z" stroke="none" fill="#fff"/>
      </g>
    </g>
  </g>
</svg>
