<svg xmlns="http://www.w3.org/2000/svg" xmlns:xlink="http://www.w3.org/1999/xlink" width="512" height="512" viewBox="0 0 512 512">
  <defs>
    <linearGradient id="linear-gradient" x1="0.5" x2="0.5" y2="1" gradientUnits="objectBoundingBox">
      <stop offset="0" stop-color="#f4f4f4"/>
      <stop offset="1" stop-color="#b7b7b7"/>
    </linearGradient>
    <filter id="time" x="132.701" y="71.452" width="249.057" height="235.155" filterUnits="userSpaceOnUse">
      <feOffset dy="3" input="SourceAlpha"/>
      <feGaussianBlur stdDeviation="3" result="blur"/>
      <feFlood flood-opacity="0.161"/>
      <feComposite operator="in" in2="blur"/>
      <feComposite in="SourceGraphic"/>
    </filter>
    <linearGradient id="linear-gradient-2" x1="0.5" x2="0.5" y2="1" gradientUnits="objectBoundingBox">
      <stop offset="0" stop-color="#fff"/>
      <stop offset="1" stop-color="#b1b1b1"/>
    </linearGradient>
    <linearGradient id="linear-gradient-3" x1="0.5" x2="0.5" y2="1.109" gradientUnits="objectBoundingBox">
      <stop offset="0" stop-color="#001690"/>
      <stop offset="1" stop-color="#000b48"/>
    </linearGradient>
    <filter id="time-2" x="31.509" y="83.131" width="448.908" height="420.015" filterUnits="userSpaceOnUse">
      <feOffset dy="3" input="SourceAlpha"/>
      <feGaussianBlur stdDeviation="3" result="blur-2"/>
      <feFlood flood-opacity="0.161"/>
      <feComposite operator="in" in2="blur-2"/>
      <feComposite in="SourceGraphic"/>
    </filter>
    <linearGradient id="linear-gradient-4" x1="0.5" x2="0.5" y2="1.863" gradientUnits="objectBoundingBox">
      <stop offset="0" stop-color="#00378e"/>
      <stop offset="1" stop-color="#001c47"/>
    </linearGradient>
    <filter id="time-3" x="74.971" y="14.188" width="364.518" height="341.203" filterUnits="userSpaceOnUse">
      <feOffset dy="3" input="SourceAlpha"/>
      <feGaussianBlur stdDeviation="3" result="blur-3"/>
      <feFlood flood-opacity="0.161"/>
      <feComposite operator="in" in2="blur-3"/>
      <feComposite in="SourceGraphic"/>
    </filter>
    <linearGradient id="linear-gradient-5" x1="0.5" x2="0.5" y2="1" gradientUnits="objectBoundingBox">
      <stop offset="0" stop-color="#ff1d00"/>
      <stop offset="1" stop-color="#800f00"/>
    </linearGradient>
    <filter id="download" x="90.623" y="284.132" width="334.122" height="176.871" filterUnits="userSpaceOnUse">
      <feOffset dy="3" input="SourceAlpha"/>
      <feGaussianBlur stdDeviation="3" result="blur-4"/>
      <feFlood flood-opacity="0.161"/>
      <feComposite operator="in" in2="blur-4"/>
      <feComposite in="SourceGraphic"/>
    </filter>
    <clipPath id="clip-icono">
      <rect width="512" height="512"/>
    </clipPath>
  </defs>
  <g id="icono" clip-path="url(#clip-icono)">
    <g transform="matrix(1, 0, 0, 1, 0, 0)" filter="url(#time)">
      <g id="time-4" data-name="time" transform="translate(429.02 342.07) rotate(180)" fill="url(#linear-gradient)">
        <path d="M 286.8216857910156 264.1143188476562 L 286.3216857910156 264.1143188476562 L 57.26433944702148 264.1143188476562 L 56.76433944702148 264.1143188476562 L 56.76433944702148 263.6143188476562 L 56.76433944702148 163.4017639160156 L 56.76433944702148 163.1946563720703 L 56.9107780456543 163.0482177734375 L 171.4394226074219 48.51950454711914 L 171.7929840087891 48.16594696044922 L 172.1465454101562 48.51950454711914 L 286.6752624511719 163.0482177734375 L 286.8216857910156 163.1946563720703 L 286.8216857910156 163.4017639160156 L 286.8216857910156 263.6143188476562 L 286.8216857910156 264.1143188476562 Z" stroke="none"/>
        <path d="M 286.3216857910156 263.6143188476562 L 286.3216857910156 163.4017639160156 L 171.7929840087891 48.87306594848633 L 57.26433944702148 163.4017639160156 L 57.26433944702148 263.6143188476562 L 286.3216857910156 263.6143188476562 M 287.3216857910156 264.6143188476562 L 286.3216857910156 264.6143188476562 L 57.26433944702148 264.6143188476562 L 56.26433944702148 264.6143188476562 L 56.26433944702148 263.6143188476562 L 56.26433944702148 163.4017639160156 L 56.26433944702148 162.9875640869141 L 56.55722045898438 162.6946563720703 L 171.0858612060547 48.16594696044922 L 171.7929840087891 47.45885848999023 L 172.5001068115234 48.16594696044922 L 287.02880859375 162.6946563720703 L 287.3216857910156 162.9875640869141 L 287.3216857910156 163.4017639160156 L 287.3216857910156 263.6143188476562 L 287.3216857910156 264.6143188476562 Z" stroke="none" fill="#fff"/>
      </g>
    </g>
    <path id="time-5" data-name="time" d="M362.646,312.446V437.272H77.329V312.446L219.988,169.788Z" transform="translate(35.975 -18.456)" fill="url(#linear-gradient-2)"/>
    <g transform="matrix(1, 0, 0, 1, 0, 0)" filter="url(#time-2)">
      <g id="time-6" data-name="time" transform="translate(35.97 -18.46)" fill="url(#linear-gradient-3)">
        <path d="M 434.4752807617188 509.1014099121094 L 433.9752807617188 509.1014099121094 L 6.000008583068848 509.1014099121094 L 5.500008583068848 509.1014099121094 L 5.500008583068848 508.6014099121094 L 5.500008583068848 294.9704284667969 L 5.500008583068848 294.8210754394531 L 5.266956329345703 294.5880432128906 L 5.672271728515625 294.2362670898438 L 219.6598968505859 108.5331573486328 L 219.9876403808594 108.2487869262695 L 220.3153839111328 108.5331573486328 L 434.3030090332031 294.2362670898438 L 434.7083129882812 294.5880432128906 L 434.4752807617188 294.8210754394531 L 434.4752807617188 294.9704284667969 L 434.4752807617188 508.6014099121094 L 434.4752807617188 509.1014099121094 Z M 77.82921600341797 436.7722473144531 L 362.1460571289062 436.7722473144531 L 362.1460571289062 312.6533203125 L 219.9876403808594 170.4949493408203 L 77.82921600341797 312.6533203125 L 77.82921600341797 436.7722473144531 Z" stroke="none"/>
        <path d="M 219.9876403808594 108.9107971191406 L 6 294.6138916015625 L 6.35662841796875 294.9704284667969 L 6 294.9704284667969 L 6 508.6014099121094 L 433.9752807617188 508.6014099121094 L 433.9752807617188 294.9704284667969 L 433.61865234375 294.9704284667969 L 433.9752807617188 294.6138916015625 L 219.9876403808594 108.9107971191406 M 362.6460571289062 437.2722778320312 L 77.3292236328125 437.2722778320312 L 77.3292236328125 312.4461669921875 L 219.9876403808594 169.7877807617188 L 362.6460571289062 312.4461669921875 L 362.6460571289062 437.2722778320312 M 219.9876403808594 107.5867309570312 L 220.64306640625 108.155517578125 L 434.6307067871094 293.858642578125 L 434.759521484375 293.9704284667969 L 434.9752807617188 293.9704284667969 L 434.9752807617188 294.1576538085938 L 435.4414367675781 294.5621948242188 L 434.9752807617188 295.0281982421875 L 434.9752807617188 508.6014099121094 L 434.9752807617188 509.6014099121094 L 433.9752807617188 509.6014099121094 L 6 509.6014099121094 L 5 509.6014099121094 L 5 508.6014099121094 L 5 295.0281982421875 L 4.533843994140625 294.5621948242188 L 5 294.1576538085938 L 5 293.9704284667969 L 5.21575927734375 293.9704284667969 L 5.344573974609375 293.858642578125 L 219.3322143554688 108.155517578125 L 219.9876403808594 107.5867309570312 Z M 361.6460571289062 312.8603515625 L 219.9876403808594 171.2019958496094 L 78.3292236328125 312.8603515625 L 78.3292236328125 436.2722778320312 L 361.6460571289062 436.2722778320312 L 361.6460571289062 312.8603515625 Z" stroke="none" fill="#fff"/>
      </g>
    </g>
    <g transform="matrix(1, 0, 0, 1, 0, 0)" filter="url(#time-3)">
      <g id="time-7" data-name="time" transform="translate(429.02 342.07) rotate(180)" fill="url(#linear-gradient-4)">
        <path d="M 344.0860290527344 321.3785705566406 L 343.5860290527344 321.3785705566406 L 1.452636752219405e-05 321.3785705566406 L -0.4999854862689972 321.3785705566406 L -0.4999854862689972 320.8785705566406 L -0.4999854862689972 149.3720092773438 L -0.4999854862689972 149.2927856445312 L -0.7329854965209961 149.0597839355469 L -0.327712744474411 148.7080535888672 L 171.4652862548828 -0.3776238262653351 L 171.7930145263672 -0.6620329022407532 L 172.1207427978516 -0.3776238262653351 L 343.9137268066406 148.7080535888672 L 344.3190002441406 149.0597839355469 L 344.0860290527344 149.2927856445312 L 344.0860290527344 149.3720092773438 L 344.0860290527344 320.8785705566406 L 344.0860290527344 321.3785705566406 Z M 57.76433181762695 263.1143188476562 L 285.8216857910156 263.1143188476562 L 285.8216857910156 163.6088714599609 L 171.7930145263672 49.58015060424805 L 57.76433181762695 163.6088714599609 L 57.76433181762695 263.1143188476562 Z" stroke="none"/>
        <path d="M 171.7930145263672 0 L 0 149.085693359375 L 0.286346435546875 149.3720092773438 L 0 149.3720092773438 L 0 320.8785705566406 L 343.5860290527344 320.8785705566406 L 343.5860290527344 149.3720092773438 L 343.2996826171875 149.3720092773438 L 343.5860290527344 149.085693359375 L 171.7930145263672 0 M 286.3216857910156 263.6143188476562 L 57.26434326171875 263.6143188476562 L 57.26434326171875 163.4017791748047 L 171.7930145263672 48.873046875 L 286.3216857910156 163.4017791748047 L 286.3216857910156 263.6143188476562 M 171.7930145263672 -1.32403564453125 L 172.4484252929688 -0.7552490234375 L 344.2414245605469 148.3304290771484 L 344.2893371582031 148.3720092773438 L 344.5860290527344 148.3720092773438 L 344.5860290527344 148.6294708251953 L 345.052001953125 149.0338745117188 L 344.5860290527344 149.4998779296875 L 344.5860290527344 320.8785705566406 L 344.5860290527344 321.8785705566406 L 343.5860290527344 321.8785705566406 L 0 321.8785705566406 L -1 321.8785705566406 L -1 320.8785705566406 L -1 149.4998779296875 L -1.465972900390625 149.0338745117188 L -1 148.6294708251953 L -1 148.3720092773438 L -0.70330810546875 148.3720092773438 L -0.6553955078125 148.3304290771484 L 171.1376037597656 -0.7552490234375 L 171.7930145263672 -1.32403564453125 Z M 285.3216857910156 163.8159637451172 L 171.7930145263672 50.2872314453125 L 58.26434326171875 163.8159637451172 L 58.26434326171875 262.6143188476562 L 285.3216857910156 262.6143188476562 L 285.3216857910156 163.8159637451172 Z" stroke="none" fill="#fff"/>
      </g>
    </g>
    <g transform="matrix(1, 0, 0, 1, 0, 0)" filter="url(#download)">
      <path id="download-2" data-name="download" d="M320.415,55.4,162.707,125.557,5,55.4,162.707,213.108Z" transform="translate(94.98 235.19)" stroke="#fff" stroke-width="1" fill="url(#linear-gradient-5)"/>
    </g>
  </g>
</svg>
